<?xml version="1.0" encoding="UTF-8" standalone="no"?>
<!-- Created with Inkscape (http://www.inkscape.org/) -->
<svg
   xmlns:svg="http://www.w3.org/2000/svg"
   xmlns="http://www.w3.org/2000/svg"
   version="1.0"
   width="445.646"
   height="158.54199"
   viewBox="0 0 445.646 158.54199"
   id="svg2583"
   xml:space="preserve"
   style="overflow:visible"><defs
   id="defs2655">
			
			
			
			
			
			
			
			
			
			
		</defs>
	<style
   type="text/css"
   id="style2585" />
	
		<g
   transform="translate(-226,0)"
   id="g2590"
   style="opacity:0.05">
				<g
   id="g2592">
					<path
   d="M 385.81885,18.89307 C 352.96045,18.41065 325.32471,122.95703 251.23487,122.73828 L 345.23487,122.73828 C 360.84424,122.73828 365.00635,18.89307 385.81885,18.89307 z"
   id="path2594"
   style="fill:#919bc9" />
				</g>
			</g><g
   transform="translate(234,0)"
   id="g2596"
   style="opacity:0.05">
				<g
   id="g2598">
					<path
   d="M 52.20752,18.89355 C 73.02002,18.89355 77.18213,122.73925 92.7915,122.73925 L 186.7915,122.73925 C 112.70166,122.95801 85.06543,18.41113 52.20752,18.89355 z"
   id="path2600"
   style="fill:#919bc9" />
				</g>
			</g><g
   transform="translate(234,0)"
   id="g2602">
				<g
   id="g2604">
					<g
   id="g2606">
						<line
   id="line2608"
   y2="131.03516"
   x2="5"
   y1="6.0351601"
   x1="5"
   style="fill:none;stroke:#000000" />
						<path
   d="M 5,0 C 6.05371,2.83984 7.85156,6.36328 9.75488,8.54688 L 5,6.82715 L 0.24512,8.54688 C 2.14844,6.36328 3.94678,2.83984 5,0 z"
   id="path2610" />
					</g>
				</g>
				<g
   id="g2612">
					<g
   id="g2614">
						<line
   id="line2616"
   y2="126.03516"
   x2="200"
   y1="126.03516"
   x1="0"
   style="fill:none;stroke:#000000" />
						<path
   d="M 206.03516,126.03516 C 203.19532,127.08887 199.67188,128.88672 197.48828,130.79004 L 199.20801,126.03516 L 197.48828,121.28028 C 199.67188,123.18359 203.19531,124.98242 206.03516,126.03516 z"
   id="path2618" />
					</g>
				</g>
			</g><path
   d="M 326.7915,122.73926 C 311.18212,122.73926 307.02002,18.89258 286.20752,18.89258 C 265.39502,18.89258 261.23291,122.73926 245.62354,122.73926"
   id="path2620"
   style="opacity:0.5;fill:none;stroke:#919bc9;stroke-width:1;stroke-dasharray:5, 5" /><path
   d="M 420.7915,122.73926 C 346.70166,122.95703 319.06543,18.41162 286.20752,18.89258 C 265.39746,19.19727 261.23291,122.73926 245.62354,122.73926"
   id="path2622"
   style="fill:none;stroke:#ff0000;stroke-width:1" /><g
   transform="translate(-226,0)"
   id="g2624">
				<g
   id="g2626">
					<g
   id="g2628">
						<line
   id="line2630"
   y2="131.03516"
   x2="244.61084"
   y1="6.0351601"
   x1="244.61084"
   style="fill:none;stroke:#000000" />
						<path
   d="M 244.61084,0 C 245.66455,2.83984 247.4624,6.36328 249.36572,8.54688 L 244.61084,6.82715 L 239.85596,8.54688 C 241.75928,6.36328 243.55713,2.83984 244.61084,0 z"
   id="path2632" />
					</g>
				</g>
				<g
   id="g2634">
					<g
   id="g2636">
						<line
   id="line2638"
   y2="126.03516"
   x2="439.61084"
   y1="126.03516"
   x1="239.61084"
   style="fill:none;stroke:#000000" />
						<path
   d="M 445.646,126.03516 C 442.80616,127.08887 439.28272,128.88672 437.09912,130.79004 L 438.81885,126.03516 L 437.09912,121.28028 C 439.28271,123.18359 442.80615,124.98242 445.646,126.03516 z"
   id="path2640" />
					</g>
				</g>
			</g><path
   d="M 119.23486,122.73926 C 134.84424,122.73926 139.00634,18.89258 159.81884,18.89258 C 180.63134,18.89258 184.79345,122.73926 200.40282,122.73926"
   id="path2642"
   style="opacity:0.5;fill:none;stroke:#919bc9;stroke-width:1;stroke-dasharray:5, 5" /><path
   d="M 25.23486,122.73926 C 99.3247,122.95703 126.96142,18.41162 159.81884,18.89258 C 180.62939,19.19727 184.79345,122.73926 200.40282,122.73926"
   id="path2644"
   style="fill:none;stroke:#ff0000;stroke-width:1" /><text
   x="283.6499"
   y="154.64551"
   id="text2646"
   style="font-size:12px"><tspan
     x="283.6499"
     y="154.64551"
     id="tspan2648"
     style="font-size:12px;font-family:ArialMT">Positive Skew</tspan></text>
<text
   x="79.103973"
   y="154.64551"
   id="text2650"
   style="font-size:12px"><tspan
     x="79.103973"
     y="154.64551"
     id="tspan2652"
     style="font-size:12px;font-family:ArialMT">Negative Skew</tspan></text>

	</svg>